<mxfile host="app.diagrams.net" modified="2024-07-15T11:15:56.803Z" agent="Mozilla/5.0 (Windows NT 10.0; Win64; x64; rv:128.0) Gecko/20100101 Firefox/128.0" version="24.6.5" etag="JZyPQzqE4p1gOSDOwht8" type="github">
  <diagram name="Page-1" id="v7nEGChln8DV6M0f_zOD">
    <mxGraphModel>
      <root>
        <mxCell id="0" />
        <mxCell id="1" parent="0" />
      </root>
    </mxGraphModel>
  </diagram>
</mxfile>
